<svg width="397" height="75" viewBox="0 0 397 75" fill="none" xmlns="http://www.w3.org/2000/svg">
<path d="M15.2194 35C12.164 35 9.48328 34.458 7.17732 33.3741C4.87135 32.2616 3.09864 30.707 1.85918 28.7103C0.619728 26.7135 0 24.4173 0 21.8215C0 18.3985 0.792676 15.3178 2.37803 12.5795C3.9922 9.84108 6.24052 7.70171 9.12297 6.16137C12.0054 4.62103 15.2914 3.85085 18.981 3.85085C21.777 3.85085 24.2559 4.35004 26.4177 5.34841C28.5796 6.31825 30.1937 7.70171 31.2602 9.49878L25.0774 14.3765C23.6073 12.0375 21.3878 10.868 18.4189 10.868C16.4877 10.868 14.787 11.3244 13.3169 12.2372C11.8469 13.1214 10.6939 14.3623 9.858 15.9597C9.05091 17.5285 8.64737 19.2971 8.64737 21.2653C8.64737 23.2905 9.31034 24.9165 10.6363 26.143C11.9622 27.3696 13.7637 27.9829 16.0409 27.9829C18.9233 27.9829 21.3878 26.8276 23.4344 24.5171L28.4931 29.4377C26.8501 31.4059 24.9332 32.8321 22.7426 33.7164C20.5519 34.5721 18.0442 35 15.2194 35Z" fill="#1770E3"/>
<path d="M58.9612 11.2103L54.2916 34.401H46.509L46.9846 32.2188C45.111 33.9303 42.8483 34.7861 40.1964 34.7861C38.4669 34.7861 36.8384 34.3725 35.3107 33.5452C33.8118 32.6895 32.6012 31.4629 31.6788 29.8655C30.7564 28.2681 30.2952 26.3855 30.2952 24.2176C30.2952 21.7074 30.8573 19.4397 31.9814 17.4144C33.1344 15.3606 34.6765 13.749 36.6078 12.5795C38.5678 11.4099 40.7008 10.8252 43.0068 10.8252C46.4081 10.8252 48.8005 11.8806 50.1841 13.9914L50.7462 11.2103H58.9612ZM43.0501 28.2396C44.6931 28.2396 46.0334 27.6406 47.0711 26.4425C48.1088 25.2445 48.6276 23.6899 48.6276 21.7787C48.6276 20.4095 48.2241 19.3256 47.417 18.5269C46.6387 17.7282 45.5578 17.3288 44.1742 17.3288C42.5312 17.3288 41.1909 17.9279 40.1532 19.1259C39.1155 20.324 38.5967 21.8928 38.5967 23.8325C38.5967 25.2017 38.9858 26.2857 39.764 27.0844C40.5711 27.8545 41.6665 28.2396 43.0501 28.2396Z" fill="#1770E3"/>
<path d="M71.5134 13.7775C73.4735 11.8093 76.2983 10.8252 79.9878 10.8252L78.561 18.1418C77.8404 18.0562 77.2207 18.0134 76.7018 18.0134C74.8571 18.0134 73.3726 18.4556 72.2484 19.3399C71.1531 20.1956 70.4181 21.5648 70.0434 23.4474L67.795 34.401H59.58L64.2496 11.2103H72.0322L71.5134 13.7775Z" fill="#1770E3"/>
<path d="M104.958 21.0086C104.958 22.121 104.8 23.3904 104.483 24.8166H87.2743C87.5625 27.3268 89.3352 28.5819 92.5924 28.5819C93.6301 28.5819 94.6389 28.425 95.619 28.1112C96.599 27.7975 97.4782 27.3268 98.2564 26.6993L101.672 31.791C98.9338 33.7877 95.6046 34.7861 91.6844 34.7861C89.2055 34.7861 87.0148 34.3582 85.1124 33.5024C83.2388 32.6182 81.7832 31.3916 80.7455 29.8227C79.7366 28.2253 79.2322 26.357 79.2322 24.2176C79.2322 21.6789 79.8231 19.3969 81.0049 17.3716C82.2155 15.3178 83.8874 13.7205 86.0204 12.5795C88.1822 11.4099 90.6467 10.8252 93.4139 10.8252C95.7487 10.8252 97.7808 11.2531 99.5103 12.1088C101.269 12.936 102.609 14.1198 103.531 15.6601C104.483 17.2005 104.958 18.9833 104.958 21.0086ZM93.0248 16.6015C91.6988 16.6015 90.5891 16.958 89.6955 17.6711C88.802 18.3557 88.1534 19.3113 87.7499 20.5379H97.3917C97.4205 19.3113 97.0314 18.3557 96.2243 17.6711C95.4172 16.958 94.3507 16.6015 93.0248 16.6015Z" fill="#1770E3"/>
<path d="M132.53 21.0086C132.53 22.121 132.372 23.3904 132.054 24.8166H114.846C115.134 27.3268 116.907 28.5819 120.164 28.5819C121.202 28.5819 122.211 28.425 123.191 28.1112C124.171 27.7975 125.05 27.3268 125.828 26.6993L129.244 31.791C126.506 33.7877 123.176 34.7861 119.256 34.7861C116.777 34.7861 114.587 34.3582 112.684 33.5024C110.811 32.6182 109.355 31.3916 108.317 29.8227C107.309 28.2253 106.804 26.357 106.804 24.2176C106.804 21.6789 107.395 19.3969 108.577 17.3716C109.787 15.3178 111.459 13.7205 113.592 12.5795C115.754 11.4099 118.219 10.8252 120.986 10.8252C123.321 10.8252 125.353 11.2531 127.082 12.1088C128.841 12.936 130.181 14.1198 131.103 15.6601C132.054 17.2005 132.53 18.9833 132.53 21.0086ZM120.597 16.6015C119.271 16.6015 118.161 16.958 117.267 17.6711C116.374 18.3557 115.725 19.3113 115.322 20.5379H124.964C124.992 19.3113 124.603 18.3557 123.796 17.6711C122.989 16.958 121.923 16.6015 120.597 16.6015Z" fill="#1770E3"/>
<path d="M145.531 13.7775C147.491 11.8093 150.316 10.8252 154.006 10.8252L152.579 18.1418C151.858 18.0562 151.238 18.0134 150.72 18.0134C148.875 18.0134 147.39 18.4556 146.266 19.3399C145.171 20.1956 144.436 21.5648 144.061 23.4474L141.813 34.401H133.598L138.267 11.2103H146.05L145.531 13.7775Z" fill="#1770E3"/>
<path d="M182.758 11.2103L168.447 34.401H159.929L154.957 11.2103H163.086L165.939 25.4156L174.63 11.2103H182.758Z" fill="#1770E3"/>
<path d="M184.882 11.2103H193.054L188.384 34.401H180.213L184.882 11.2103ZM190.114 8.64303C188.701 8.64303 187.563 8.25795 186.698 7.48778C185.833 6.7176 185.401 5.76202 185.401 4.62103C185.401 3.28036 185.877 2.18215 186.828 1.3264C187.808 0.442135 189.09 0 190.676 0C192.117 0 193.27 0.370823 194.135 1.11247C195 1.82559 195.432 2.75265 195.432 3.89364C195.432 5.29136 194.942 6.43235 193.962 7.31663C192.982 8.2009 191.699 8.64303 190.114 8.64303Z" fill="#1770E3"/>
<path d="M205.615 13.7775C207.575 11.8093 210.4 10.8252 214.09 10.8252L212.663 18.1418C211.942 18.0562 211.322 18.0134 210.804 18.0134C208.959 18.0134 207.474 18.4556 206.35 19.3399C205.255 20.1956 204.52 21.5648 204.145 23.4474L201.897 34.401H193.682L198.351 11.2103H206.134L205.615 13.7775Z" fill="#1770E3"/>
<path d="M242 11.2103L237.33 34.401H229.548L230.023 32.2188C228.15 33.9303 225.887 34.7861 223.235 34.7861C221.506 34.7861 219.877 34.3725 218.349 33.5452C216.851 32.6895 215.64 31.4629 214.718 29.8655C213.795 28.2681 213.334 26.3855 213.334 24.2176C213.334 21.7074 213.896 19.4397 215.02 17.4144C216.173 15.3606 217.715 13.749 219.647 12.5795C221.607 11.4099 223.74 10.8252 226.046 10.8252C229.447 10.8252 231.839 11.8806 233.223 13.9914L233.785 11.2103H242ZM226.089 28.2396C227.732 28.2396 229.072 27.6406 230.11 26.4425C231.148 25.2445 231.666 23.6899 231.666 21.7787C231.666 20.4095 231.263 19.3256 230.456 18.5269C229.678 17.7282 228.597 17.3288 227.213 17.3288C225.57 17.3288 224.23 17.9279 223.192 19.1259C222.154 20.324 221.635 21.8928 221.635 23.8325C221.635 25.2017 222.025 26.2857 222.803 27.0844C223.61 27.8545 224.705 28.2396 226.089 28.2396Z" fill="#1770E3"/>
<path d="M19.86 54H22.34L17.7 68H14.94L11.48 57.64L7.96 68H5.18L0.54 54H3.24L6.72 64.64L10.34 54H12.74L16.28 64.7L19.86 54ZM28.2173 68.14C24.9373 68.14 22.5373 65.86 22.5373 62.66C22.5373 59.46 24.9373 57.2 28.2173 57.2C31.5373 57.2 33.9173 59.46 33.9173 62.66C33.9173 65.86 31.5373 68.14 28.2173 68.14ZM28.2173 66C30.0373 66 31.3973 64.7 31.3973 62.66C31.3973 60.62 30.0373 59.32 28.2173 59.32C26.4173 59.32 25.0573 60.62 25.0573 62.66C25.0573 64.7 26.4173 66 28.2173 66ZM38.688 58.88C39.408 57.76 40.708 57.2 42.488 57.2V59.58C42.268 59.54 42.088 59.52 41.908 59.52C40.008 59.52 38.808 60.64 38.808 62.82V68H36.308V57.32H38.688V58.88ZM44.6088 68V53.16H47.1088V68H44.6088ZM58.35 53.16H60.85V68H58.45V66.62C57.61 67.64 56.37 68.14 54.91 68.14C51.81 68.14 49.51 65.98 49.51 62.66C49.51 59.34 51.81 57.2 54.91 57.2C56.29 57.2 57.51 57.66 58.35 58.64V53.16ZM55.21 66C57.01 66 58.39 64.7 58.39 62.66C58.39 60.62 57.01 59.32 55.21 59.32C53.41 59.32 52.03 60.62 52.03 62.66C52.03 64.7 53.41 66 55.21 66ZM63.5805 63.48V61.4H69.0805V63.48H63.5805ZM78.6334 68.2C74.3534 68.2 71.1534 65.18 71.1534 61C71.1534 56.82 74.3534 53.8 78.6534 53.8C80.9334 53.8 82.8934 54.62 84.1934 56.14L82.5134 57.72C81.4934 56.62 80.2334 56.08 78.7734 56.08C75.8734 56.08 73.7734 58.12 73.7734 61C73.7734 63.88 75.8734 65.92 78.7734 65.92C80.2334 65.92 81.4934 65.38 82.5134 64.26L84.1934 65.86C82.8934 67.38 80.9334 68.2 78.6334 68.2ZM86.4447 68V53.16H88.9447V68H86.4447ZM96.3059 57.2C99.3859 57.2 101.166 58.66 101.166 61.74V68H98.8059V66.7C98.2059 67.62 97.0459 68.14 95.4459 68.14C93.0059 68.14 91.4659 66.8 91.4659 64.94C91.4659 63.16 92.6659 61.76 95.9059 61.76H98.6659V61.6C98.6659 60.14 97.7859 59.28 96.0059 59.28C94.8059 59.28 93.5659 59.68 92.7659 60.34L91.7859 58.52C92.9259 57.64 94.5859 57.2 96.3059 57.2ZM95.9659 66.32C97.1859 66.32 98.2459 65.76 98.6659 64.66V63.42H96.0859C94.3859 63.42 93.9259 64.06 93.9259 64.84C93.9259 65.74 94.6859 66.32 95.9659 66.32ZM107.674 68.14C105.894 68.14 104.114 67.62 103.154 66.94L104.114 65.04C105.054 65.66 106.494 66.1 107.834 66.1C109.414 66.1 110.074 65.66 110.074 64.92C110.074 62.88 103.474 64.8 103.474 60.54C103.474 58.52 105.294 57.2 108.174 57.2C109.594 57.2 111.214 57.54 112.174 58.12L111.214 60.02C110.194 59.42 109.174 59.22 108.154 59.22C106.634 59.22 105.914 59.72 105.914 60.42C105.914 62.58 112.514 60.66 112.514 64.84C112.514 66.84 110.674 68.14 107.674 68.14ZM117.967 68.14C116.187 68.14 114.407 67.62 113.447 66.94L114.407 65.04C115.347 65.66 116.787 66.1 118.127 66.1C119.707 66.1 120.367 65.66 120.367 64.92C120.367 62.88 113.767 64.8 113.767 60.54C113.767 58.52 115.587 57.2 118.467 57.2C119.887 57.2 121.507 57.54 122.467 58.12L121.507 60.02C120.487 59.42 119.467 59.22 118.447 59.22C116.927 59.22 116.207 59.72 116.207 60.42C116.207 62.58 122.807 60.66 122.807 64.84C122.807 66.84 120.967 68.14 117.967 68.14ZM130.728 68V54H133.328V65.8H140.648V68H130.728ZM152.403 62.72C152.403 62.92 152.383 63.22 152.363 63.46H143.983C144.283 65.02 145.583 66.02 147.443 66.02C148.643 66.02 149.583 65.64 150.343 64.86L151.683 66.4C150.723 67.54 149.223 68.14 147.383 68.14C143.803 68.14 141.483 65.84 141.483 62.66C141.483 59.48 143.823 57.2 147.003 57.2C150.123 57.2 152.403 59.38 152.403 62.72ZM147.003 59.2C145.383 59.2 144.203 60.24 143.963 61.8H150.023C149.823 60.26 148.643 59.2 147.003 59.2ZM158.591 57.2C161.671 57.2 163.451 58.66 163.451 61.74V68H161.091V66.7C160.491 67.62 159.331 68.14 157.731 68.14C155.291 68.14 153.751 66.8 153.751 64.94C153.751 63.16 154.951 61.76 158.191 61.76H160.951V61.6C160.951 60.14 160.071 59.28 158.291 59.28C157.091 59.28 155.851 59.68 155.051 60.34L154.071 58.52C155.211 57.64 156.871 57.2 158.591 57.2ZM158.251 66.32C159.471 66.32 160.531 65.76 160.951 64.66V63.42H158.371C156.671 63.42 156.211 64.06 156.211 64.84C156.211 65.74 156.971 66.32 158.251 66.32ZM169.04 58.88C169.76 57.76 171.06 57.2 172.84 57.2V59.58C172.62 59.54 172.44 59.52 172.26 59.52C170.36 59.52 169.16 60.64 169.16 62.82V68H166.66V57.32H169.04V58.88ZM181.02 57.2C183.58 57.2 185.48 58.66 185.48 61.88V68H182.98V62.2C182.98 60.3 182.04 59.38 180.44 59.38C178.66 59.38 177.46 60.46 177.46 62.6V68H174.96V57.32H177.34V58.7C178.16 57.72 179.46 57.2 181.02 57.2ZM189.912 55.56C188.992 55.56 188.312 54.9 188.312 54.06C188.312 53.22 188.992 52.56 189.912 52.56C190.832 52.56 191.512 53.18 191.512 54C191.512 54.88 190.852 55.56 189.912 55.56ZM188.652 68V57.32H191.152V68H188.652ZM200.493 57.2C203.053 57.2 204.953 58.66 204.953 61.88V68H202.453V62.2C202.453 60.3 201.513 59.38 199.913 59.38C198.133 59.38 196.933 60.46 196.933 62.6V68H194.433V57.32H196.813V58.7C197.633 57.72 198.933 57.2 200.493 57.2ZM216.442 57.32H218.822V66.38C218.822 70.26 216.802 72.02 213.062 72.02C211.062 72.02 209.082 71.5 207.862 70.5L208.982 68.62C209.922 69.4 211.442 69.9 212.922 69.9C215.282 69.9 216.322 68.82 216.322 66.66V66.1C215.442 67.06 214.182 67.52 212.742 67.52C209.682 67.52 207.342 65.44 207.342 62.34C207.342 59.24 209.682 57.2 212.742 57.2C214.242 57.2 215.562 57.68 216.442 58.74V57.32ZM213.122 65.4C215.002 65.4 216.362 64.16 216.362 62.34C216.362 60.54 215.002 59.32 213.122 59.32C211.222 59.32 209.862 60.54 209.862 62.34C209.862 64.16 211.222 65.4 213.122 65.4ZM231.976 55.04C230.936 55.04 230.396 55.62 230.396 56.76V57.4H233.336V59.4H230.476V68H227.976V59.4H226.216V57.4H227.976V56.72C227.976 54.48 229.316 53.02 231.796 53.02C232.656 53.02 233.496 53.2 234.056 53.6L233.356 55.48C232.976 55.22 232.496 55.04 231.976 55.04ZM239.663 68.14C236.383 68.14 233.983 65.86 233.983 62.66C233.983 59.46 236.383 57.2 239.663 57.2C242.983 57.2 245.363 59.46 245.363 62.66C245.363 65.86 242.983 68.14 239.663 68.14ZM239.663 66C241.483 66 242.843 64.7 242.843 62.66C242.843 60.62 241.483 59.32 239.663 59.32C237.863 59.32 236.503 60.62 236.503 62.66C236.503 64.7 237.863 66 239.663 66ZM250.133 58.88C250.853 57.76 252.153 57.2 253.933 57.2V59.58C253.713 59.54 253.533 59.52 253.353 59.52C251.453 59.52 250.253 60.64 250.253 62.82V68H247.753V57.32H250.133V58.88ZM267.679 54C271.359 54 273.639 55.88 273.639 58.98C273.639 62.06 271.359 63.96 267.679 63.96H264.519V68H261.919V54H267.679ZM267.559 61.76C269.839 61.76 271.019 60.74 271.019 58.98C271.019 57.22 269.839 56.2 267.559 56.2H264.519V61.76H267.559ZM278.278 58.88C278.998 57.76 280.298 57.2 282.078 57.2V59.58C281.858 59.54 281.678 59.52 281.498 59.52C279.598 59.52 278.398 60.64 278.398 62.82V68H275.898V57.32H278.278V58.88ZM288.901 68.14C285.621 68.14 283.221 65.86 283.221 62.66C283.221 59.46 285.621 57.2 288.901 57.2C292.221 57.2 294.601 59.46 294.601 62.66C294.601 65.86 292.221 68.14 288.901 68.14ZM288.901 66C290.721 66 292.081 64.7 292.081 62.66C292.081 60.62 290.721 59.32 288.901 59.32C287.101 59.32 285.741 60.62 285.741 62.66C285.741 64.7 287.101 66 288.901 66ZM301.332 55.04C300.292 55.04 299.752 55.62 299.752 56.76V57.4H302.692V59.4H299.832V68H297.332V59.4H295.572V57.4H297.332V56.72C297.332 54.48 298.672 53.02 301.152 53.02C302.012 53.02 302.852 53.2 303.412 53.6L302.712 55.48C302.332 55.22 301.852 55.04 301.332 55.04ZM314.258 62.72C314.258 62.92 314.238 63.22 314.218 63.46H305.838C306.138 65.02 307.438 66.02 309.298 66.02C310.498 66.02 311.438 65.64 312.198 64.86L313.538 66.4C312.578 67.54 311.078 68.14 309.238 68.14C305.658 68.14 303.338 65.84 303.338 62.66C303.338 59.48 305.678 57.2 308.858 57.2C311.978 57.2 314.258 59.38 314.258 62.72ZM308.858 59.2C307.238 59.2 306.058 60.24 305.818 61.8H311.878C311.678 60.26 310.498 59.2 308.858 59.2ZM319.96 68.14C318.18 68.14 316.4 67.62 315.44 66.94L316.4 65.04C317.34 65.66 318.78 66.1 320.12 66.1C321.7 66.1 322.36 65.66 322.36 64.92C322.36 62.88 315.76 64.8 315.76 60.54C315.76 58.52 317.58 57.2 320.46 57.2C321.88 57.2 323.5 57.54 324.46 58.12L323.5 60.02C322.48 59.42 321.46 59.22 320.44 59.22C318.92 59.22 318.2 59.72 318.2 60.42C318.2 62.58 324.8 60.66 324.8 64.84C324.8 66.84 322.96 68.14 319.96 68.14ZM330.253 68.14C328.473 68.14 326.693 67.62 325.733 66.94L326.693 65.04C327.633 65.66 329.073 66.1 330.413 66.1C331.993 66.1 332.653 65.66 332.653 64.92C332.653 62.88 326.053 64.8 326.053 60.54C326.053 58.52 327.873 57.2 330.753 57.2C332.173 57.2 333.793 57.54 334.753 58.12L333.793 60.02C332.773 59.42 331.753 59.22 330.733 59.22C329.213 59.22 328.493 59.72 328.493 60.42C328.493 62.58 335.093 60.66 335.093 64.84C335.093 66.84 333.253 68.14 330.253 68.14ZM338.505 55.56C337.585 55.56 336.905 54.9 336.905 54.06C336.905 53.22 337.585 52.56 338.505 52.56C339.425 52.56 340.105 53.18 340.105 54C340.105 54.88 339.445 55.56 338.505 55.56ZM337.245 68V57.32H339.745V68H337.245ZM347.827 68.14C344.547 68.14 342.147 65.86 342.147 62.66C342.147 59.46 344.547 57.2 347.827 57.2C351.147 57.2 353.527 59.46 353.527 62.66C353.527 65.86 351.147 68.14 347.827 68.14ZM347.827 66C349.647 66 351.007 64.7 351.007 62.66C351.007 60.62 349.647 59.32 347.827 59.32C346.027 59.32 344.667 60.62 344.667 62.66C344.667 64.7 346.027 66 347.827 66ZM361.977 57.2C364.537 57.2 366.437 58.66 366.437 61.88V68H363.937V62.2C363.937 60.3 362.997 59.38 361.397 59.38C359.617 59.38 358.417 60.46 358.417 62.6V68H355.917V57.32H358.297V58.7C359.117 57.72 360.417 57.2 361.977 57.2ZM373.689 57.2C376.769 57.2 378.549 58.66 378.549 61.74V68H376.189V66.7C375.589 67.62 374.429 68.14 372.829 68.14C370.389 68.14 368.849 66.8 368.849 64.94C368.849 63.16 370.049 61.76 373.289 61.76H376.049V61.6C376.049 60.14 375.169 59.28 373.389 59.28C372.189 59.28 370.949 59.68 370.149 60.34L369.169 58.52C370.309 57.64 371.969 57.2 373.689 57.2ZM373.349 66.32C374.569 66.32 375.629 65.76 376.049 64.66V63.42H373.469C371.769 63.42 371.309 64.06 371.309 64.84C371.309 65.74 372.069 66.32 373.349 66.32ZM381.757 68V53.16H384.257V68H381.757ZM390.838 68.14C389.058 68.14 387.278 67.62 386.318 66.94L387.278 65.04C388.218 65.66 389.658 66.1 390.998 66.1C392.578 66.1 393.238 65.66 393.238 64.92C393.238 62.88 386.638 64.8 386.638 60.54C386.638 58.52 388.458 57.2 391.338 57.2C392.758 57.2 394.378 57.54 395.338 58.12L394.378 60.02C393.358 59.42 392.338 59.22 391.318 59.22C389.798 59.22 389.078 59.72 389.078 60.42C389.078 62.58 395.678 60.66 395.678 64.84C395.678 66.84 393.838 68.14 390.838 68.14Z" fill="black"/>
</svg>
