<svg xmlns:xlink="http://www.w3.org/1999/xlink" width="64" height="64" viewBox="0 0 40 41" fill="none" xmlns="http://www.w3.org/2000/svg"><circle cx="20" cy="20" r="20" fill="#FFF6E0"></circle><path fill-rule="evenodd" clip-rule="evenodd" d="M20 12.5C18.3431 12.5 17 13.8431 17 15.5C17 17.1569 18.3431 18.5 20 18.5C21.6569 18.5 23 17.1569 23 15.5C23 13.8431 21.6569 12.5 20 12.5ZM15 15.5C15 12.7386 17.2386 10.5 20 10.5C22.7614 10.5 25 12.7386 25 15.5C25 18.2614 22.7614 20.5 20 20.5C17.2386 20.5 15 18.2614 15 15.5ZM12.4645 23.9645C13.4021 23.0268 14.6739 22.5 16 22.5H24C25.3261 22.5 26.5979 23.0268 27.5355 23.9645C28.4732 24.9021 29 26.1739 29 27.5V29.5C29 30.0523 28.5523 30.5 28 30.5C27.4477 30.5 27 30.0523 27 29.5V27.5C27 26.7044 26.6839 25.9413 26.1213 25.3787C25.5587 24.8161 24.7956 24.5 24 24.5H16C15.2044 24.5 14.4413 24.8161 13.8787 25.3787C13.3161 25.9413 13 26.7043 13 27.5V29.5C13 30.0523 12.5523 30.5 12 30.5C11.4477 30.5 11 30.0523 11 29.5V27.5C11 26.1739 11.5268 24.9021 12.4645 23.9645Z" fill="#FFD600"></path></svg>